<svg width="206" height="178" xmlns="http://www.w3.org/2000/svg" xmlns:xlink="http://www.w3.org/1999/xlink" xml:space="preserve" overflow="hidden"><defs><clipPath id="clip0"><rect x="50" y="94" width="206" height="178"/></clipPath><clipPath id="clip1"><rect x="51" y="95" width="205" height="177"/></clipPath><clipPath id="clip2"><rect x="51" y="95" width="205" height="177"/></clipPath><clipPath id="clip3"><rect x="51" y="95" width="205" height="177"/></clipPath></defs><g clip-path="url(#clip0)" transform="translate(-50 -94)"><g clip-path="url(#clip1)"><g clip-path="url(#clip2)"><g clip-path="url(#clip3)"><path d="M43.8665 128.516 41.6857 127.44C41.0404 127.14 40.658 126.938 40.5449 126.84 40.1564 126.513 39.9607 126.021 39.9607 125.366 39.9607 124.782 40.2054 124.305 40.6917 123.938 41.178 123.571 41.8631 123.384 42.7501 123.384 43.316 123.384 43.9063 123.507 44.518 123.754 45.3408 124.078 45.8057 124.351 45.9127 124.571L46.3379 125.045 46.6284 125.045 46.6437 121.139 46.2186 121.139C46.1391 121.185 46.0748 121.219 46.032 121.237 45.7659 121.359 45.5732 121.417 45.4601 121.417 45.0686 121.384 44.5792 121.274 43.9858 121.093 43.3924 120.913 42.8113 120.821 42.2455 120.821 40.4378 120.821 38.9972 121.255 37.9206 122.13 36.844 123.002 36.3056 124.176 36.3056 125.657 36.3056 126.535 36.4616 127.266 36.7706 127.85 37.159 128.584 37.8502 129.217 38.8412 129.749L41.4716 131.156C42.7043 131.82 43.4077 132.245 43.5851 132.432 43.9828 132.838 44.1816 133.331 44.1816 133.906 44.1816 134.658 43.9338 135.242 43.4383 135.658 42.8541 136.154 41.958 136.402 40.7559 136.402 39.9576 136.402 39.2297 136.288 38.5721 136.062 37.9114 135.836 37.422 135.542 37.1039 135.178L36.4922 134.459 36.2139 134.459 36.6115 138.298 37.6208 138.576C37.9848 138.674 38.3947 138.784 38.8565 138.91 39.2358 138.989 39.8628 139.029 40.7315 139.029 42.848 139.029 44.5333 138.57 45.7904 137.646 47.0934 136.692 47.7418 135.362 47.7418 133.661 47.7418 132.554 47.4634 131.609 46.9037 130.832 46.292 129.982 45.2796 129.208 43.8635 128.507Z" fill="#FFFFFF" fill-rule="nonzero" fill-opacity="1" transform="matrix(1 0 0 1.00432 51 95.0317)"/><path d="M58.2634 120.748C55.4372 120.748 53.1616 121.616 51.4335 123.354 49.7788 125.017 48.9499 127.143 48.9499 129.728 48.9499 132.722 49.9011 135.056 51.8067 136.729 53.5073 138.218 55.6575 138.962 58.2634 138.962 60.8693 138.962 62.943 138.173 64.7048 136.597 66.6348 134.869 67.5982 132.581 67.5982 129.731 67.5982 127.152 66.7571 125.03 65.0749 123.357 63.3284 121.619 61.0589 120.751 58.2603 120.751ZM62.2732 134.285C61.3006 135.472 59.964 136.065 58.2634 136.065 56.5628 136.065 55.2751 135.515 54.2903 134.42 53.2809 133.294 52.7762 131.731 52.7762 129.731 52.7762 128.021 53.2503 126.587 54.1985 125.427 55.217 124.179 56.572 123.552 58.2634 123.552 59.9548 123.552 61.2302 124.164 62.2487 125.388 63.2153 126.547 63.6985 127.997 63.6985 129.731 63.6985 131.618 63.2244 133.135 62.2763 134.288Z" fill="#FFFFFF" fill-rule="nonzero" fill-opacity="1" transform="matrix(1 0 0 1.00432 51 95.0317)"/><path d="M81.5516 121.411C81.8605 121.518 82.0563 121.729 82.1358 122.051 82.1542 122.139 82.1633 122.213 82.1633 122.277 82.1633 122.497 82.1266 122.693 82.0563 122.861L77.9639 131.532 74.4434 122.873C74.3547 122.644 74.3119 122.525 74.3119 122.512 74.2782 122.39 74.2599 122.265 74.2599 122.142 74.2599 121.974 74.3058 121.833 74.3914 121.723 74.4801 121.613 74.5658 121.54 74.6514 121.503 74.734 121.466 74.8533 121.436 75.0031 121.408L75.0031 121.142 68.9991 121.142 68.9991 121.408C69.0603 121.442 69.1612 121.494 69.3049 121.555 69.4456 121.616 69.5466 121.668 69.6108 121.714 69.8586 121.882 70.0635 122.121 70.2225 122.433 70.3357 122.708 70.4519 122.983 70.5682 123.256L77.5418 139.075 78.0587 139.075 85.1913 124.32C85.4299 123.825 85.6196 123.451 85.7603 123.204 85.9652 122.849 86.1885 122.503 86.4393 122.167 86.5371 122.035 86.6534 121.907 86.7849 121.781 86.9164 121.656 87.051 121.534 87.1825 121.408L87.1825 121.142 81.5516 121.142 81.5516 121.408Z" fill="#FFFFFF" fill-rule="nonzero" fill-opacity="1" transform="matrix(1 0 0 1.00432 51 95.0317)"/><path d="M99.8818 134.695C99.7503 134.9 99.576 135.059 99.3649 135.172 99.0101 135.349 98.6951 135.469 98.4198 135.53 98.1445 135.594 97.7286 135.625 97.1719 135.625L94.621 135.625C94.4436 135.625 94.2754 135.594 94.1164 135.539 93.9573 135.481 93.8105 135.392 93.679 135.267 93.5444 135.145 93.4404 134.976 93.3609 134.762 93.2814 134.551 93.2416 134.294 93.2416 133.991L93.2416 130.71 97.1077 130.71C97.2514 130.71 97.4472 130.743 97.698 130.817 97.9519 130.887 98.166 130.988 98.3434 131.119 98.6278 131.333 98.796 131.572 98.848 131.838L99.1019 131.838 99.1019 126.525 98.8236 126.525C98.744 126.73 98.6614 126.895 98.5789 127.024 98.4932 127.152 98.377 127.278 98.2271 127.403 98.0222 127.571 97.8112 127.694 97.5909 127.767 97.3677 127.844 97.1383 127.88 96.8997 127.88L93.2477 127.88 93.2477 124.094 97.9121 124.094C98.1415 124.094 98.3464 124.115 98.5238 124.158 98.7012 124.204 98.8541 124.293 98.9887 124.424 99.1233 124.556 99.2151 124.663 99.2701 124.742 99.3221 124.822 99.3772 124.923 99.4292 125.048L99.7075 125.048 99.7075 121.142 88.1918 121.142 88.1918 121.408C88.6078 121.549 88.9504 121.843 89.2134 122.286 89.3205 122.473 89.3939 122.656 89.4398 122.84 89.4856 123.02 89.507 123.326 89.507 123.751L89.507 136.512C89.507 136.802 89.4765 137.062 89.4122 137.282 89.3511 137.503 89.2348 137.705 89.0666 137.879 88.9595 137.995 88.8464 138.084 88.7302 138.151 88.6109 138.218 88.4824 138.267 88.3509 138.304L88.3509 138.57 100.188 138.57 100.573 134.068 100.227 134.068C100.041 134.441 99.9308 134.649 99.8941 134.692Z" fill="#FFFFFF" fill-rule="nonzero" fill-opacity="1" transform="matrix(1 0 0 1.00432 51 95.0317)"/><path d="M117.735 137.974C117.594 137.857 117.478 137.732 117.383 137.594 117.288 137.457 117.203 137.322 117.123 137.188L112.872 130.602 113.75 130.043C114.404 129.608 114.915 129.079 115.276 128.461 115.64 127.841 115.82 127.131 115.82 126.333 115.82 124.861 115.248 123.629 114.107 122.635 112.967 121.641 111.557 121.145 109.883 121.145L101.793 121.145 101.793 121.411C102.017 121.491 102.203 121.583 102.35 121.684 102.497 121.788 102.616 121.922 102.705 122.09 102.885 122.402 103.005 122.72 103.06 123.048 103.118 123.375 103.148 123.76 103.148 124.204L103.148 135.622C103.148 136.154 103.118 136.588 103.054 136.925 102.965 137.405 102.812 137.741 102.595 137.937 102.378 138.133 102.124 138.255 101.833 138.31L101.833 138.564 108.382 138.564 108.382 138.31C108.177 138.249 108.005 138.182 107.862 138.111 107.721 138.041 107.605 137.943 107.516 137.818 107.287 137.5 107.137 137.133 107.073 136.72 107.005 136.31 106.972 135.768 106.972 135.105L106.972 123.858C107.131 123.822 107.308 123.8 107.498 123.791 107.687 123.782 107.923 123.776 108.195 123.776 109.287 123.776 110.119 123.932 110.685 124.241 111.492 124.684 111.896 125.467 111.896 126.596 111.896 127.446 111.56 128.116 110.884 128.602 110.287 129.027 109.547 129.238 108.657 129.238L107.911 129.238 107.911 129.596 112.526 136.977C112.97 137.695 113.431 138.169 113.909 138.399 114.254 138.57 114.756 138.653 115.41 138.653L116.196 138.653C116.701 138.653 117.114 138.644 117.432 138.625 117.75 138.61 118.016 138.592 118.23 138.573L118.23 138.319C118.151 138.292 118.068 138.246 117.977 138.179 117.888 138.114 117.805 138.044 117.726 137.974Z" fill="#FFFFFF" fill-rule="nonzero" fill-opacity="1" transform="matrix(1 0 0 1.00432 51 95.0317)"/><path d="M130.951 134.695C130.82 134.9 130.645 135.059 130.434 135.172 130.079 135.349 129.764 135.469 129.489 135.53 129.214 135.594 128.798 135.625 128.241 135.625L125.69 135.625C125.513 135.625 125.345 135.594 125.186 135.539 125.027 135.481 124.88 135.392 124.748 135.267 124.614 135.145 124.51 134.976 124.43 134.762 124.351 134.551 124.311 134.294 124.311 133.991L124.311 130.71 128.177 130.71C128.321 130.71 128.516 130.743 128.767 130.817 129.021 130.887 129.235 130.988 129.413 131.119 129.697 131.333 129.865 131.572 129.917 131.838L130.171 131.838 130.171 126.525 129.893 126.525C129.813 126.73 129.731 126.895 129.648 127.024 129.563 127.152 129.446 127.278 129.296 127.403 129.092 127.571 128.88 127.694 128.66 127.767 128.44 127.844 128.208 127.88 127.969 127.88L124.317 127.88 124.317 124.094 128.981 124.094C129.211 124.094 129.416 124.115 129.593 124.158 129.771 124.204 129.927 124.293 130.058 124.424 130.193 124.556 130.284 124.663 130.339 124.742 130.391 124.822 130.446 124.923 130.498 125.048L130.777 125.048 130.777 121.142 119.261 121.142 119.261 121.408C119.677 121.549 120.02 121.843 120.283 122.286 120.39 122.473 120.463 122.656 120.509 122.84 120.555 123.02 120.576 123.326 120.576 123.751L120.576 136.512C120.576 136.802 120.546 137.062 120.482 137.282 120.42 137.503 120.304 137.705 120.136 137.879 120.029 137.995 119.916 138.084 119.799 138.151 119.68 138.218 119.552 138.267 119.42 138.304L119.42 138.57 131.257 138.57 131.642 134.068 131.297 134.068C131.11 134.441 131 134.649 130.963 134.692Z" fill="#FFFFFF" fill-rule="nonzero" fill-opacity="1" transform="matrix(1 0 0 1.00432 51 95.0317)"/><path d="M138.231 137.588C138.062 137.402 137.952 137.175 137.903 136.903 137.854 136.634 137.83 136.304 137.83 135.912L137.83 123.5C137.83 123.188 137.854 122.913 137.903 122.668 137.952 122.427 138.047 122.21 138.188 122.023 138.426 121.723 138.726 121.518 139.09 121.411L139.09 121.145 132.529 121.145 132.529 121.411C132.707 121.476 132.857 121.543 132.982 121.625 133.107 121.705 133.23 121.815 133.355 121.959 133.523 122.136 133.661 122.43 133.765 122.837 133.845 123.136 133.884 123.369 133.884 123.528L133.884 136.273C133.884 136.665 133.848 136.986 133.777 137.243 133.707 137.5 133.566 137.726 133.358 137.922 133.15 138.117 132.909 138.249 132.633 138.319L132.633 138.573 139.222 138.573 139.222 138.319C138.848 138.142 138.616 138.004 138.518 137.909 138.42 137.812 138.322 137.705 138.228 137.588Z" fill="#FFFFFF" fill-rule="nonzero" fill-opacity="1" transform="matrix(1 0 0 1.00432 51 95.0317)"/><path d="M151.499 130.193C151.774 130.245 152.019 130.361 152.23 130.538 152.505 130.768 152.695 131.19 152.802 131.801 152.835 132.006 152.854 132.162 152.854 132.266L152.854 135.469 152.508 135.643C152.172 135.793 151.792 135.912 151.373 135.995 150.951 136.077 150.542 136.12 150.144 136.12 148.437 136.12 147.039 135.487 145.96 134.221 144.941 133.025 144.43 131.569 144.43 129.85 144.43 128.027 144.877 126.577 145.773 125.507 146.801 124.274 148.333 123.659 150.37 123.659 151.193 123.659 151.948 123.766 152.631 123.981 153.313 124.192 153.878 124.51 154.331 124.935L154.689 125.268 155.05 125.268 154.891 121.069 154.573 121.069C154.573 121.069 154.478 121.161 154.313 121.317 154.172 121.448 154.047 121.515 153.934 121.515 153.915 121.515 153.897 121.515 153.882 121.509 152.765 121.191 152.205 121.029 152.193 121.029 151.539 120.879 150.826 120.803 150.055 120.803 147.192 120.803 144.886 121.653 143.134 123.354 141.424 125.008 140.57 127.122 140.57 129.691 140.57 132.392 141.409 134.588 143.082 136.279 144.843 138.059 147.247 138.952 150.294 138.952 151.63 138.952 152.768 138.842 153.707 138.619 154.762 138.371 155.772 137.943 156.735 137.331L156.735 129.92 151.502 129.92 151.502 130.199Z" fill="#FFFFFF" fill-rule="nonzero" fill-opacity="1" transform="matrix(1 0 0 1.00432 51 95.0317)"/><path d="M169.563 121.161 169.563 121.427C169.768 121.515 169.942 121.644 170.095 121.812 170.211 121.947 170.34 122.136 170.481 122.384 170.594 122.595 170.667 122.785 170.692 122.95 170.716 123.115 170.731 123.357 170.731 123.675L170.731 131.471 159.411 120.448 159.121 120.448 159.121 135.83C159.121 136.362 159.106 136.711 159.081 136.879 159.029 137.243 158.892 137.546 158.671 137.79 158.448 138.032 158.188 138.209 157.888 138.313L157.888 138.567 163.825 138.567 163.825 138.313C163.657 138.243 163.507 138.145 163.372 138.02 163.284 137.931 163.164 137.79 163.015 137.594 162.865 137.399 162.758 137.188 162.696 136.961 162.635 136.735 162.605 136.49 162.605 136.224L162.605 128.241 174.081 139.001 174.267 139.001 174.267 123.656C174.267 123.366 174.282 123.121 174.313 122.925 174.344 122.733 174.411 122.537 174.518 122.341 174.677 122.057 174.775 121.895 174.809 121.849 174.925 121.733 175.166 121.592 175.54 121.424L175.54 121.157 169.563 121.157Z" fill="#FFFFFF" fill-rule="nonzero" fill-opacity="1" transform="matrix(1 0 0 1.00432 51 95.0317)"/><path d="M72.8743 88.724 51.7149 63.4967 52.9842 62.6311 72.489 98.5942 71.1493 98.8236 77.2114 61.0314 77.4194 61.6309 47.387 34.1004 48.3841 33.4367C53.4002 46.9955 58.8812 60.4228 65.2462 73.4127 69.045 80.8695 72.8652 88.5008 78.4594 94.7831 79.9122 96.2941 82.5089 98.8174 84.705 98.3219 85.332 97.9304 85.5125 97.0985 85.6899 96.3522 86.1089 94.0491 85.9713 91.6144 85.8184 89.2685 85.4452 84.4848 84.6775 79.7164 83.818 74.9756 82.9463 70.2348 81.9584 65.5092 80.8573 60.8204 80.8298 60.7103 80.8451 60.6002 80.8909 60.5053L100.27 21.0126C100.341 20.8689 100.487 20.7832 100.64 20.7832 100.861 20.771 101.114 20.7832 101.215 21.0126 101.237 21.3124 120.665 60.4992 120.521 60.7928 119.408 65.4817 118.405 70.2072 117.521 74.9481 117.01 78.0954 112.878 98.8725 117.395 98.6186 122.256 98.0497 127.064 90.1188 129.55 86.2221 139.445 69.6414 146.636 51.5803 153.487 33.5774L153.817 33.7976C153.802 33.7089 123.458 61.6676 123.76 61.114L129.725 98.9214C129.07 99.2487 149.762 60.6644 149.63 60.6858 149.967 60.6797 128.403 89.5804 128.48 89.6294 128.507 89.6477 149.685 60.383 149.713 60.7286 149.575 60.7714 129.832 99.1845 129.581 99.0285 129.523 99.0499 123.47 61.1996 123.464 61.1629 123.442 60.9335 153.453 33.6569 153.545 33.4978 153.628 33.4214 153.756 33.4275 153.833 33.5101 153.885 33.5682 153.9 33.6508 153.875 33.7181 150.535 42.7899 146.948 51.7638 143.069 60.6185 138.426 70.8924 129.541 91.1923 120.894 97.802 119.558 98.7349 116.833 100.234 115.649 98.3128 114.713 96.6458 114.759 94.6791 114.707 92.847 114.707 91.6297 114.765 90.4154 114.857 89.2042 115.692 79.5452 117.686 70.0604 119.836 60.6246 120.185 61.7533 100.411 21.1258 100.481 21.3705L100.848 21.5999 100.64 21.5999 101.01 21.3705 81.7321 60.9152 81.7657 60.6002C82.8852 65.3135 83.8884 70.0421 84.7754 74.8013 85.6562 80.2731 88.4702 93.7983 86.0233 98.429 84.0627 101.408 79.2087 97.227 77.6947 95.508 71.9996 89.1584 68.106 81.4415 64.246 73.9143 57.8229 60.8907 52.3022 47.4634 47.2279 33.8618 47.1086 33.5437 47.2738 33.1889 47.5919 33.0696 47.8152 32.9871 48.0599 33.0421 48.225 33.195L78.3278 60.646C78.4991 60.802 78.5695 61.0314 78.5358 61.2455L72.5715 99.0529C72.4981 99.7136 71.5194 99.8788 71.2319 99.2823L51.6354 63.3682C51.4305 62.995 51.5681 62.5271 51.9443 62.3222 52.2716 62.1447 52.6723 62.2273 52.9047 62.5026L74.1284 87.6749C74.8135 88.4977 73.5778 89.5346 72.8835 88.721Z" fill="#FFFFFF" fill-rule="nonzero" fill-opacity="1" transform="matrix(1 0 0 1.00432 51 95.0317)"/><path d="M69.5986 108.614C84.3196 100.105 103.785 100.533 119.595 105.641 121.901 106.418 124.176 107.299 126.333 108.421 124.146 107.36 121.852 106.543 119.533 105.834 107.978 102.417 95.4438 101.76 83.7049 104.555 79.117 105.733 74.5046 107.366 70.5284 109.948 69.6322 110.59 68.6688 109.247 69.5986 108.611L69.5986 108.611Z" fill="#FFFFFF" fill-rule="nonzero" fill-opacity="1" transform="matrix(1 0 0 1.00432 51 95.0317)"/><path d="M69.5986 114.676C84.3196 106.167 103.785 106.595 119.595 111.703 121.901 112.48 124.176 113.361 126.333 114.484 124.146 113.422 121.852 112.606 119.533 111.896 107.978 108.48 95.4438 107.822 83.7049 110.618 79.117 111.795 74.5046 113.428 70.5284 116.01 69.6322 116.652 68.6688 115.309 69.5986 114.673L69.5986 114.673Z" fill="#FFFFFF" fill-rule="nonzero" fill-opacity="1" transform="matrix(1 0 0 1.00432 51 95.0317)"/><path d="M42.2393 146.122 45.9311 155.472 45.3163 155.472 44.1387 152.471 39.6609 152.471 38.4681 155.472 37.8533 155.472 41.6123 146.122 42.2393 146.122ZM43.9552 151.976 41.9518 146.685 41.9274 146.685 39.8445 151.976 43.9552 151.976Z" fill="#FFFFFF" fill-rule="nonzero" fill-opacity="1" transform="matrix(1 0 0 1.00432 51 95.0317)"/><path d="M50.3079 150.863 50.3079 155.472 49.7329 155.472 49.7329 146.122 55.5993 146.122 55.5993 146.62 50.3079 146.62 50.3079 150.367 55.0763 150.367 55.0763 150.866 50.3079 150.866Z" fill="#FFFFFF" fill-rule="nonzero" fill-opacity="1" transform="matrix(1 0 0 1.00432 51 95.0317)"/><path d="M59.5969 146.122 63.4997 146.122C65.1361 146.122 66.4604 146.724 66.4604 148.532 66.4604 149.789 65.7019 150.719 64.4571 150.93L64.4571 150.954C65.8457 151.11 66.1852 151.988 66.2769 152.958 66.3687 153.927 66.2127 154.973 66.592 155.472L65.9497 155.472C65.5949 154.83 65.8059 153.756 65.7019 152.854 65.5857 151.952 65.1391 151.217 63.5028 151.217L60.1781 151.217 60.1781 155.475 59.6031 155.475 59.6031 146.125ZM63.4997 150.719C64.8608 150.719 65.8824 150.077 65.8824 148.572 65.8824 147.159 64.7568 146.62 63.4997 146.62L60.175 146.62 60.175 150.719 63.4997 150.719Z" fill="#FFFFFF" fill-rule="nonzero" fill-opacity="1" transform="matrix(1 0 0 1.00432 51 95.0317)"/><path d="M70.978 146.122 71.553 146.122 71.553 155.472 70.978 155.472 70.978 146.122Z" fill="#FFFFFF" fill-rule="nonzero" fill-opacity="1" transform="matrix(1 0 0 1.00432 51 95.0317)"/><path d="M83.6162 148.911C83.3684 147.339 81.9921 146.397 80.4322 146.397 77.9822 146.397 76.5569 148.4 76.5569 150.798 76.5569 153.196 77.9853 155.2 80.4322 155.2 82.252 155.2 83.6682 153.576 83.7722 151.835L84.3472 151.835C84.1392 154.062 82.4875 155.698 80.4322 155.698 77.6305 155.698 75.9788 153.539 75.9788 150.801 75.9788 148.064 77.6274 145.905 80.4322 145.905 83.7446 145.905 84.1789 148.786 84.1912 148.917L83.6162 148.917Z" fill="#FFFFFF" fill-rule="nonzero" fill-opacity="1" transform="matrix(1 0 0 1.00432 51 95.0317)"/><path d="M92.0916 146.122 95.7833 155.472 95.1685 155.472 93.991 152.471 89.5132 152.471 88.3203 155.472 87.7055 155.472 91.4646 146.122 92.0916 146.122ZM93.8074 151.976 91.8041 146.685 91.7796 146.685 89.6967 151.976 93.8074 151.976Z" fill="#FFFFFF" fill-rule="nonzero" fill-opacity="1" transform="matrix(1 0 0 1.00432 51 95.0317)"/><path d="M106.354 146.122 110.257 146.122C111.893 146.122 113.217 146.724 113.217 148.532 113.217 149.789 112.459 150.719 111.214 150.93L111.214 150.954C112.603 151.11 112.942 151.988 113.034 152.958 113.126 153.927 112.97 154.973 113.349 155.472L112.707 155.472C112.352 154.83 112.563 153.756 112.459 152.854 112.343 151.952 111.896 151.217 110.26 151.217L106.935 151.217 106.935 155.475 106.36 155.475 106.36 146.125ZM110.257 150.719C111.618 150.719 112.639 150.077 112.639 148.572 112.639 147.159 111.514 146.62 110.257 146.62L106.932 146.62 106.932 150.719 110.257 150.719Z" fill="#FFFFFF" fill-rule="nonzero" fill-opacity="1" transform="matrix(1 0 0 1.00432 51 95.0317)"/><path d="M121.142 146.122 124.834 155.472 124.219 155.472 123.042 152.471 118.564 152.471 117.371 155.472 116.756 155.472 120.515 146.122 121.142 146.122ZM122.858 151.976 120.855 146.685 120.83 146.685 118.747 151.976 122.858 151.976Z" fill="#FFFFFF" fill-rule="nonzero" fill-opacity="1" transform="matrix(1 0 0 1.00432 51 95.0317)"/><path d="M126.972 146.62 126.972 146.122 134.135 146.122 134.135 146.62 130.835 146.62 130.835 155.472 130.26 155.472 130.26 146.62 126.972 146.62Z" fill="#FFFFFF" fill-rule="nonzero" fill-opacity="1" transform="matrix(1 0 0 1.00432 51 95.0317)"/><path d="M137.906 146.122 138.481 146.122 138.481 155.472 137.906 155.472 137.906 146.122Z" fill="#FFFFFF" fill-rule="nonzero" fill-opacity="1" transform="matrix(1 0 0 1.00432 51 95.0317)"/><path d="M143.265 146.122 143.987 146.122 149.893 154.701 149.918 154.701 149.918 146.122 150.493 146.122 150.493 155.472 149.811 155.472 143.865 146.828 143.84 146.828 143.84 155.472 143.265 155.472 143.265 146.122Z" fill="#FFFFFF" fill-rule="nonzero" fill-opacity="1" transform="matrix(1 0 0 1.00432 51 95.0317)"/><path d="M163.397 150.89 163.397 155.475 162.898 155.475 162.898 153.484 162.871 153.484C162.412 154.845 160.987 155.698 159.335 155.698 156.506 155.698 154.934 153.539 154.934 150.854 154.934 148.168 156.53 145.905 159.347 145.905 161.271 145.905 162.911 147.07 163.238 149.021L162.687 149.021C162.256 147.41 161.063 146.403 159.363 146.403 156.836 146.403 155.512 148.526 155.512 150.857 155.512 153.187 156.796 155.206 159.363 155.206 161.589 155.206 162.99 153.686 162.898 151.395L159.454 151.395 159.454 150.896 163.397 150.896Z" fill="#FFFFFF" fill-rule="nonzero" fill-opacity="1" transform="matrix(1 0 0 1.00432 51 95.0317)"/><path d="M174.215 148.795C174.151 147.198 172.946 146.4 171.218 146.4 170.156 146.4 168.652 146.847 168.652 148.391 168.652 149.936 170.248 150.147 171.832 150.474 173.429 150.801 175.029 151.208 175.029 153.068 175.029 154.928 173.169 155.701 171.741 155.701 169.554 155.701 167.774 154.799 167.798 152.389L168.373 152.389C168.254 154.432 169.893 155.206 171.738 155.206 172.863 155.206 174.448 154.695 174.448 153.071 174.448 151.447 172.851 151.211 171.251 150.884 169.667 150.557 168.067 150.178 168.067 148.394 168.067 146.611 169.731 145.908 171.212 145.908 173.163 145.908 174.695 146.746 174.787 148.801L174.212 148.801Z" fill="#FFFFFF" fill-rule="nonzero" fill-opacity="1" transform="matrix(1 0 0 1.00432 51 95.0317)"/><path d="M74.0397 88.201 52.816 63.0287 52.8864 62.9798C52.8374 63.0317 72.8988 99.1386 72.3054 98.9245 72.4094 99.004 78.1841 60.6307 78.3156 61.2455L48.2128 33.7945 48.5309 33.5835C53.5898 47.1453 59.1076 60.5665 65.5123 73.5534 69.3386 81.0225 73.1924 88.6659 78.8233 94.9544 80.3496 96.5204 83.0228 99.1294 85.3473 98.5207 86.0508 98.0956 86.2557 97.1903 86.4362 96.3981 86.8552 94.0613 86.7115 91.6236 86.5494 89.2562 86.1609 84.4603 85.381 79.692 84.5093 74.9511 83.6253 70.2103 82.6252 65.4847 81.5088 60.7959 81.3222 60.542 100.824 21.2573 100.812 21.0187 100.913 20.7985 101.173 20.774 101.384 20.7924 101.543 20.7924 101.68 20.8842 101.748 21.0187L121.127 60.5115C121.176 60.6124 121.185 60.7194 121.161 60.8234 120.059 65.5123 119.072 70.2409 118.2 74.9787 117.521 79.2332 114.257 95.7282 117.316 98.3311 124.02 99.2701 133.976 78.9273 136.775 73.4157 143.149 60.4319 148.627 47.0016 153.646 33.4459L154.631 34.1035 124.598 61.634 124.806 61.0406 130.869 98.8327 129.535 98.6125 149.532 60.3555 150.832 61.166 129.679 90.1157C129.018 90.966 127.755 90.0331 128.364 89.1553 128.364 89.1553 149.59 60.2607 149.593 60.2576 149.844 59.915 150.324 59.8416 150.667 60.0894 150.979 60.3157 151.068 60.7347 150.893 61.0651L130.798 99.2701C130.486 99.8696 129.563 99.7197 129.465 99.0499L123.5 61.2425C123.464 61.0161 123.552 60.7959 123.708 60.6491L153.811 33.1981C154.059 32.9687 154.447 32.984 154.677 33.2348 154.836 33.4092 154.873 33.6508 154.799 33.8557 147.92 51.926 140.72 70.0084 130.789 86.6503 128.201 90.7641 125.507 95.0125 121.561 97.9794 118.977 99.7442 116.037 100.594 115.34 96.551 114.9 94.0919 115.046 91.645 115.215 89.1889 115.606 84.3411 116.392 79.5574 117.264 74.7982 118.151 70.039 119.154 65.3104 120.274 60.6002 120.711 62.0805 100.949 21.0463 101.029 21.3674L101.393 21.5938 101.185 21.5938 101.546 21.3674 82.1664 60.8601 82.1909 60.6277C83.2981 65.341 84.286 70.0696 85.1608 74.8288 86.0202 79.588 86.791 84.3686 87.1703 89.2073 87.3293 91.6419 87.47 94.0858 87.0296 96.5143 86.1181 102.121 80.4903 97.6888 78.4104 95.3429 72.752 88.9993 68.892 81.2977 65.0627 73.7766 58.6824 60.7531 53.1953 47.3136 48.1639 33.7181 48.0905 33.5346 48.3413 33.3633 48.482 33.504L78.5144 61.0345C78.597 61.0956 72.5195 98.8511 72.4981 98.9551 72.2229 99.3986 52.8955 62.9859 52.8313 62.9645 52.8496 62.9553 52.8711 62.9583 52.8833 62.9736L74.0427 88.201Z" fill="#FFFFFF" fill-rule="nonzero" fill-opacity="1" transform="matrix(1 0 0 1.00432 51 95.0317)"/><path d="M70.6079 109.281C85.0415 100.451 104.439 100.405 120.326 105.06 122.684 105.785 124.978 106.595 127.262 107.706 127.666 107.901 127.834 108.391 127.639 108.795 127.434 109.223 126.898 109.379 126.492 109.14 124.433 108.067 122.155 107.18 119.891 106.418 104.289 101.381 85.1546 100.934 70.6079 109.284L70.6079 109.284Z" fill="#FFFFFF" fill-rule="nonzero" fill-opacity="1" transform="matrix(1 0 0 1.00432 51 95.0317)"/><path d="M70.6079 115.343C85.0415 106.513 104.439 106.467 120.326 111.122 122.684 111.847 124.978 112.658 127.262 113.768 127.666 113.964 127.834 114.453 127.639 114.857 127.434 115.285 126.898 115.441 126.492 115.202 124.433 114.129 122.155 113.242 119.891 112.48 104.289 107.443 85.1546 106.996 70.6079 115.346L70.6079 115.346Z" fill="#FFFFFF" fill-rule="nonzero" fill-opacity="1" transform="matrix(1 0 0 1.00432 51 95.0317)"/></g></g></g></g></svg>