<svg width="116" height="100" xmlns="http://www.w3.org/2000/svg" xmlns:xlink="http://www.w3.org/1999/xlink" xml:space="preserve" overflow="hidden"><defs><clipPath id="clip0"><rect x="316" y="122" width="116" height="100"/></clipPath><clipPath id="clip1"><rect x="316" y="123" width="115" height="99"/></clipPath><clipPath id="clip2"><rect x="316" y="123" width="115" height="99"/></clipPath></defs><g clip-path="url(#clip0)" transform="translate(-316 -122)"><g clip-path="url(#clip1)"><g clip-path="url(#clip2)"><path d="M43.5293 127.528 41.3652 126.46C40.7248 126.163 40.3455 125.962 40.2332 125.865 39.8477 125.54 39.6535 125.052 39.6535 124.402 39.6535 123.823 39.8963 123.349 40.3788 122.985 40.8614 122.621 41.5413 122.436 42.4215 122.436 42.983 122.436 43.5687 122.557 44.1757 122.803 44.9922 123.125 45.4535 123.395 45.5597 123.613L45.9816 124.084 46.27 124.084 46.2851 120.208 45.8633 120.208C45.7843 120.253 45.7206 120.287 45.6781 120.305 45.4141 120.426 45.2229 120.484 45.1106 120.484 44.7221 120.451 44.2365 120.341 43.6476 120.162 43.0588 119.983 42.4822 119.892 41.9207 119.892 40.1269 119.892 38.6974 120.323 37.6291 121.191 36.5607 122.056 36.0265 123.222 36.0265 124.691 36.0265 125.562 36.1813 126.287 36.4879 126.867 36.8733 127.595 37.5592 128.223 38.5426 128.752L41.1528 130.148C42.3759 130.806 43.074 131.228 43.25 131.413 43.6446 131.817 43.8419 132.306 43.8419 132.876 43.8419 133.623 43.596 134.203 43.1044 134.615 42.5247 135.107 41.6354 135.353 40.4426 135.353 39.6504 135.353 38.9281 135.241 38.2755 135.016 37.6199 134.791 37.1343 134.5 36.8187 134.139L36.2117 133.426 35.9355 133.426 36.33 137.235 37.3316 137.511C37.6928 137.608 38.0995 137.717 38.5578 137.842 38.9341 137.921 39.5563 137.96 40.4183 137.96 42.5186 137.96 44.1909 137.505 45.4383 136.588 46.7313 135.641 47.3747 134.321 47.3747 132.633 47.3747 131.535 47.0985 130.597 46.5431 129.826 45.9361 128.982 44.9315 128.214 43.5262 127.519Z" fill="#FFFFFF" fill-rule="nonzero" fill-opacity="1" transform="matrix(1.00697 0 0 1 273.368 104.884)"/><path d="M57.8154 119.819C55.011 119.819 52.7529 120.681 51.0381 122.405 49.3961 124.056 48.5736 126.166 48.5736 128.73 48.5736 131.702 49.5175 134.017 51.4084 135.678 53.0959 137.156 55.2295 137.893 57.8154 137.893 60.4013 137.893 62.4591 137.11 64.2074 135.547 66.1225 133.832 67.0785 131.562 67.0785 128.733 67.0785 126.175 66.2439 124.068 64.5746 122.408 62.8416 120.684 60.5895 119.822 57.8124 119.822ZM61.7945 133.253C60.8293 134.43 59.503 135.019 57.8154 135.019 56.1279 135.019 54.8502 134.473 53.8729 133.386 52.8713 132.269 52.3705 130.718 52.3705 128.733 52.3705 127.037 52.8409 125.613 53.7818 124.463 54.7925 123.225 56.137 122.603 57.8154 122.603 59.4939 122.603 60.7595 123.21 61.7702 124.424 62.7293 125.574 63.2088 127.012 63.2088 128.733 63.2088 130.606 62.7384 132.111 61.7975 133.256Z" fill="#FFFFFF" fill-rule="nonzero" fill-opacity="1" transform="matrix(1.00697 0 0 1 273.368 104.884)"/><path d="M80.9246 120.478C81.2312 120.584 81.4254 120.794 81.5043 121.112 81.5225 121.2 81.5316 121.273 81.5316 121.337 81.5316 121.555 81.4952 121.75 81.4254 121.917L77.3645 130.521 73.8711 121.929C73.7831 121.701 73.7406 121.583 73.7406 121.571 73.7072 121.449 73.689 121.325 73.689 121.203 73.689 121.036 73.7345 120.897 73.8195 120.788 73.9075 120.678 73.9925 120.605 74.0775 120.569 74.1594 120.533 74.2778 120.502 74.4265 120.475L74.4265 120.211 68.4686 120.211 68.4686 120.475C68.5293 120.508 68.6295 120.56 68.7721 120.621 68.9117 120.681 69.0119 120.733 69.0756 120.778 69.3215 120.945 69.5248 121.182 69.6826 121.492 69.795 121.765 69.9103 122.038 70.0256 122.308L76.9456 138.006 77.4586 138.006 84.5364 123.364C84.7731 122.873 84.9613 122.502 85.1009 122.256 85.3043 121.904 85.5258 121.561 85.7747 121.228 85.8718 121.097 85.9872 120.97 86.1177 120.845 86.2482 120.721 86.3817 120.599 86.5122 120.475L86.5122 120.211 80.9246 120.211 80.9246 120.475Z" fill="#FFFFFF" fill-rule="nonzero" fill-opacity="1" transform="matrix(1.00697 0 0 1 273.368 104.884)"/><path d="M99.1139 133.659C98.9834 133.863 98.8104 134.021 98.601 134.133 98.2489 134.309 97.9363 134.427 97.6632 134.488 97.39 134.552 96.9772 134.582 96.4248 134.582L93.8936 134.582C93.7175 134.582 93.5506 134.552 93.3928 134.497 93.235 134.439 93.0893 134.351 92.9588 134.227 92.8252 134.105 92.722 133.939 92.6431 133.726 92.5642 133.517 92.5247 133.262 92.5247 132.961L92.5247 129.705 96.3611 129.705C96.5037 129.705 96.698 129.738 96.9469 129.811 97.1988 129.881 97.4112 129.981 97.5873 130.111 97.8695 130.324 98.0365 130.561 98.0881 130.825L98.34 130.825 98.34 125.553 98.0638 125.553C97.9849 125.756 97.9029 125.92 97.821 126.047 97.736 126.175 97.6207 126.299 97.4719 126.424 97.2686 126.591 97.0592 126.712 96.8406 126.785 96.6191 126.861 96.3914 126.897 96.1547 126.897L92.5308 126.897 92.5308 123.14 97.1593 123.14C97.387 123.14 97.5903 123.161 97.7663 123.203 97.9424 123.249 98.0941 123.337 98.2277 123.467 98.3612 123.598 98.4523 123.704 98.5069 123.783 98.5585 123.862 98.6131 123.962 98.6647 124.087L98.9409 124.087 98.9409 120.211 87.5138 120.211 87.5138 120.475C87.9266 120.615 88.2665 120.906 88.5275 121.346 88.6338 121.531 88.7066 121.713 88.7521 121.895 88.7977 122.074 88.8189 122.378 88.8189 122.8L88.8189 135.462C88.8189 135.751 88.7886 136.008 88.7248 136.227 88.6641 136.446 88.5488 136.646 88.3819 136.819 88.2756 136.934 88.1633 137.022 88.048 137.089 87.9296 137.156 87.8021 137.204 87.6716 137.241L87.6716 137.505 99.4174 137.505 99.7999 133.037 99.4569 133.037C99.2718 133.407 99.1625 133.614 99.1261 133.656Z" fill="#FFFFFF" fill-rule="nonzero" fill-opacity="1" transform="matrix(1.00697 0 0 1 273.368 104.884)"/><path d="M116.83 136.913C116.69 136.798 116.575 136.673 116.481 136.537 116.387 136.4 116.302 136.266 116.223 136.133L112.004 129.598 112.875 129.043C113.525 128.612 114.031 128.087 114.39 127.474 114.751 126.858 114.93 126.154 114.93 125.361 114.93 123.902 114.362 122.678 113.23 121.692 112.098 120.706 110.699 120.214 109.039 120.214L101.011 120.214 101.011 120.478C101.232 120.557 101.418 120.648 101.563 120.748 101.709 120.851 101.827 120.985 101.915 121.152 102.094 121.461 102.213 121.777 102.267 122.102 102.325 122.426 102.355 122.809 102.355 123.249L102.355 134.579C102.355 135.107 102.325 135.538 102.261 135.872 102.173 136.348 102.022 136.682 101.806 136.877 101.591 137.071 101.339 137.192 101.05 137.247L101.05 137.499 107.548 137.499 107.548 137.247C107.345 137.186 107.175 137.119 107.032 137.05 106.893 136.98 106.778 136.883 106.69 136.758 106.462 136.443 106.313 136.078 106.249 135.669 106.183 135.262 106.149 134.725 106.149 134.066L106.149 122.906C106.307 122.87 106.483 122.848 106.671 122.839 106.859 122.83 107.093 122.824 107.363 122.824 108.447 122.824 109.272 122.979 109.834 123.285 110.635 123.725 111.036 124.502 111.036 125.622 111.036 126.466 110.702 127.131 110.031 127.613 109.439 128.035 108.705 128.245 107.822 128.245L107.081 128.245 107.081 128.6 111.661 135.924C112.101 136.637 112.559 137.107 113.033 137.335 113.376 137.505 113.874 137.587 114.523 137.587L115.303 137.587C115.804 137.587 116.214 137.578 116.529 137.559 116.845 137.544 117.109 137.526 117.321 137.508L117.321 137.256C117.243 137.229 117.161 137.183 117.07 137.116 116.982 137.053 116.9 136.983 116.821 136.913Z" fill="#FFFFFF" fill-rule="nonzero" fill-opacity="1" transform="matrix(1.00697 0 0 1 273.368 104.884)"/><path d="M129.944 133.659C129.814 133.863 129.641 134.021 129.431 134.133 129.079 134.309 128.767 134.427 128.494 134.488 128.22 134.552 127.808 134.582 127.255 134.582L124.724 134.582C124.548 134.582 124.381 134.552 124.223 134.497 124.065 134.439 123.92 134.351 123.789 134.227 123.656 134.105 123.552 133.939 123.474 133.726 123.395 133.517 123.355 133.262 123.355 132.961L123.355 129.705 127.192 129.705C127.334 129.705 127.528 129.738 127.777 129.811 128.029 129.881 128.242 129.981 128.418 130.111 128.7 130.324 128.867 130.561 128.919 130.825L129.17 130.825 129.17 125.553 128.894 125.553C128.815 125.756 128.733 125.92 128.651 126.047 128.566 126.175 128.451 126.299 128.302 126.424 128.099 126.591 127.89 126.712 127.671 126.785 127.453 126.861 127.222 126.897 126.985 126.897L123.361 126.897 123.361 123.14 127.99 123.14C128.217 123.14 128.421 123.161 128.597 123.203 128.773 123.249 128.928 123.337 129.058 123.467 129.192 123.598 129.283 123.704 129.337 123.783 129.389 123.862 129.444 123.962 129.495 124.087L129.771 124.087 129.771 120.211 118.344 120.211 118.344 120.475C118.757 120.615 119.097 120.906 119.358 121.346 119.464 121.531 119.537 121.713 119.583 121.895 119.628 122.074 119.649 122.378 119.649 122.8L119.649 135.462C119.649 135.751 119.619 136.008 119.555 136.227 119.495 136.446 119.379 136.646 119.212 136.819 119.106 136.934 118.994 137.022 118.878 137.089 118.76 137.156 118.633 137.204 118.502 137.241L118.502 137.505 130.248 137.505 130.63 133.037 130.287 133.037C130.102 133.407 129.993 133.614 129.957 133.656Z" fill="#FFFFFF" fill-rule="nonzero" fill-opacity="1" transform="matrix(1.00697 0 0 1 273.368 104.884)"/><path d="M137.168 136.531C137.001 136.345 136.892 136.121 136.843 135.851 136.795 135.584 136.77 135.256 136.77 134.867L136.77 122.551C136.77 122.241 136.795 121.968 136.843 121.725 136.892 121.486 136.986 121.27 137.125 121.085 137.362 120.788 137.66 120.584 138.021 120.478L138.021 120.214 131.51 120.214 131.51 120.478C131.687 120.542 131.835 120.608 131.96 120.69 132.084 120.769 132.206 120.879 132.33 121.021 132.497 121.197 132.633 121.489 132.737 121.892 132.816 122.19 132.855 122.42 132.855 122.578L132.855 135.225C132.855 135.614 132.819 135.933 132.749 136.188 132.679 136.443 132.539 136.667 132.333 136.861 132.127 137.056 131.887 137.186 131.614 137.256L131.614 137.508 138.151 137.508 138.151 137.256C137.781 137.08 137.55 136.943 137.453 136.849 137.356 136.752 137.259 136.646 137.165 136.531Z" fill="#FFFFFF" fill-rule="nonzero" fill-opacity="1" transform="matrix(1.00697 0 0 1 273.368 104.884)"/><path d="M150.334 129.192C150.607 129.243 150.85 129.359 151.06 129.535 151.333 129.762 151.521 130.181 151.627 130.788 151.66 130.991 151.679 131.146 151.679 131.249L151.679 134.427 151.336 134.6C151.002 134.749 150.625 134.867 150.21 134.949 149.791 135.031 149.384 135.074 148.99 135.074 147.296 135.074 145.909 134.445 144.838 133.189 143.827 132.002 143.32 130.557 143.32 128.852 143.32 127.043 143.763 125.604 144.652 124.542 145.672 123.319 147.193 122.709 149.214 122.709 150.031 122.709 150.78 122.815 151.457 123.027 152.134 123.237 152.695 123.552 153.145 123.974L153.5 124.305 153.858 124.305 153.7 120.138 153.384 120.138C153.384 120.138 153.29 120.229 153.126 120.384 152.987 120.514 152.862 120.581 152.75 120.581 152.732 120.581 152.714 120.581 152.698 120.575 151.591 120.259 151.035 120.099 151.023 120.099 150.374 119.95 149.666 119.874 148.902 119.874 146.061 119.874 143.772 120.718 142.033 122.405 140.337 124.047 139.49 126.144 139.49 128.694 139.49 131.374 140.321 133.553 141.982 135.232 143.73 136.998 146.115 137.884 149.138 137.884 150.465 137.884 151.594 137.775 152.525 137.553 153.573 137.308 154.574 136.883 155.53 136.276L155.53 128.922 150.337 128.922 150.337 129.198Z" fill="#FFFFFF" fill-rule="nonzero" fill-opacity="1" transform="matrix(1.00697 0 0 1 273.368 104.884)"/><path d="M168.259 120.229 168.259 120.493C168.463 120.581 168.636 120.709 168.787 120.876 168.903 121.009 169.03 121.197 169.17 121.443 169.282 121.653 169.355 121.841 169.379 122.005 169.404 122.168 169.419 122.408 169.419 122.724L169.419 130.46 158.186 119.522 157.898 119.522 157.898 134.785C157.898 135.313 157.882 135.659 157.858 135.826 157.807 136.188 157.67 136.488 157.451 136.731 157.23 136.971 156.972 137.147 156.674 137.25L156.674 137.502 162.566 137.502 162.566 137.25C162.399 137.18 162.25 137.083 162.116 136.958 162.028 136.87 161.91 136.731 161.761 136.537 161.613 136.342 161.506 136.133 161.446 135.908 161.385 135.684 161.355 135.441 161.355 135.177L161.355 127.255 172.742 137.933 172.927 137.933 172.927 122.706C172.927 122.417 172.943 122.175 172.973 121.98 173.003 121.789 173.07 121.595 173.176 121.401 173.334 121.118 173.431 120.957 173.465 120.912 173.58 120.797 173.82 120.657 174.19 120.49L174.19 120.226 168.259 120.226Z" fill="#FFFFFF" fill-rule="nonzero" fill-opacity="1" transform="matrix(1.00697 0 0 1 273.368 104.884)"/><path d="M72.3141 88.0419 51.3173 63.0085 52.5769 62.1496 71.9317 97.8362 70.6023 98.0638 76.6178 60.5622 76.8242 61.1571 47.0227 33.8382 48.0121 33.1796C52.9897 46.6342 58.4285 59.9582 64.7446 72.8483 68.5141 80.2478 72.305 87.8204 77.8561 94.0544 79.2978 95.5538 81.8746 98.0577 84.0538 97.566 84.676 97.1775 84.8551 96.352 85.0311 95.6114 85.4469 93.326 85.3103 90.9101 85.1586 88.5822 84.7883 83.8353 84.0265 79.1036 83.1736 74.3992 82.3086 69.6948 81.3283 65.0056 80.2357 60.3528 80.2083 60.2435 80.2235 60.1343 80.2691 60.0402L99.4994 20.8511C99.5692 20.7084 99.7149 20.6234 99.8666 20.6234 100.085 20.6113 100.337 20.6234 100.437 20.8511 100.458 21.1485 119.737 60.0341 119.595 60.3255 118.49 64.9783 117.494 69.6675 116.617 74.3719 116.11 77.495 112.01 98.1124 116.493 97.8604 121.316 97.2959 126.087 89.4259 128.554 85.5592 138.373 69.106 145.508 51.1838 152.307 33.3192L152.635 33.5378C152.62 33.4497 122.508 61.1935 122.809 60.6441L128.727 98.1609C128.078 98.4857 148.61 60.198 148.48 60.2192 148.814 60.2132 127.416 88.8917 127.492 88.9403 127.519 88.9585 148.534 59.9188 148.562 60.2617 148.425 60.3042 128.834 98.4219 128.585 98.2671 128.527 98.2884 122.521 60.7291 122.514 60.6927 122.493 60.4651 152.274 33.3981 152.365 33.2403 152.447 33.1644 152.574 33.1705 152.65 33.2525 152.701 33.3101 152.717 33.3921 152.692 33.4588 149.378 42.4609 145.818 51.3659 141.969 60.1525 137.362 70.3473 128.545 90.4912 119.965 97.0501 118.639 97.9758 115.934 99.463 114.76 97.5569 113.831 95.9028 113.877 93.9512 113.825 92.1332 113.825 90.9252 113.883 89.7203 113.974 88.5184 114.802 78.9336 116.781 69.5218 118.915 60.1585 119.261 61.2785 99.639 20.9634 99.7088 21.2062L100.073 21.4338 99.8666 21.4338 100.234 21.2062 81.1037 60.4469 81.1371 60.1343C82.2479 64.8113 83.2434 69.5036 84.1236 74.2262 84.9977 79.656 87.79 93.0771 85.3619 97.6723 83.4164 100.628 78.5997 96.4795 77.0974 94.7738 71.446 88.4729 67.5824 80.8154 63.7521 73.346 57.3784 60.4226 51.9001 47.0985 46.8648 33.6015 46.7465 33.2858 46.9104 32.9338 47.226 32.8154 47.4476 32.7335 47.6904 32.7881 47.8543 32.9398L77.7256 60.1798C77.8956 60.3346 77.9654 60.5622 77.932 60.7747L72.0136 98.2914C71.9408 98.947 70.9695 99.1109 70.6842 98.5191L51.2384 62.881C51.035 62.5107 51.1716 62.0464 51.5449 61.843 51.8697 61.667 52.2673 61.7489 52.498 62.0221L73.5585 87.0009C74.2383 87.8173 73.0121 88.8462 72.3232 88.0389Z" fill="#FFFFFF" fill-rule="nonzero" fill-opacity="1" transform="matrix(1.00697 0 0 1 273.368 104.884)"/><path d="M69.0635 107.779C83.6714 99.3355 102.987 99.7604 118.675 104.829 120.964 105.6 123.222 106.474 125.361 107.588 123.191 106.535 120.915 105.724 118.614 105.02 107.148 101.63 94.71 100.977 83.0613 103.752 78.5087 104.92 73.9318 106.541 69.9862 109.102 69.0969 109.74 68.1408 108.407 69.0635 107.776L69.0635 107.776Z" fill="#FFFFFF" fill-rule="nonzero" fill-opacity="1" transform="matrix(1.00697 0 0 1 273.368 104.884)"/><path d="M69.0635 113.795C83.6714 105.351 102.987 105.776 118.675 110.845 120.964 111.615 123.222 112.49 125.361 113.603 123.191 112.55 120.915 111.74 118.614 111.036 107.148 107.646 94.71 106.993 83.0613 109.767 78.5087 110.936 73.9318 112.556 69.9862 115.118 69.0969 115.755 68.1408 114.423 69.0635 113.792L69.0635 113.792Z" fill="#FFFFFF" fill-rule="nonzero" fill-opacity="1" transform="matrix(1.00697 0 0 1 273.368 104.884)"/><path d="M41.9146 144.998 45.578 154.277 44.9679 154.277 43.7994 151.299 39.356 151.299 38.1723 154.277 37.5623 154.277 41.2924 144.998 41.9146 144.998ZM43.6173 150.808 41.6293 145.557 41.605 145.557 39.5381 150.808 43.6173 150.808Z" fill="#FFFFFF" fill-rule="nonzero" fill-opacity="1" transform="matrix(1.00697 0 0 1 273.368 104.884)"/><path d="M49.9212 149.703 49.9212 154.277 49.3506 154.277 49.3506 144.998 55.1719 144.998 55.1719 145.493 49.9212 145.493 49.9212 149.211 54.6529 149.211 54.6529 149.706 49.9212 149.706Z" fill="#FFFFFF" fill-rule="nonzero" fill-opacity="1" transform="matrix(1.00697 0 0 1 273.368 104.884)"/><path d="M59.1387 144.998 63.0115 144.998C64.6353 144.998 65.9495 145.596 65.9495 147.39 65.9495 148.638 65.1968 149.56 63.9615 149.77L63.9615 149.794C65.3394 149.949 65.6763 150.82 65.7674 151.782 65.8584 152.744 65.7036 153.782 66.08 154.277L65.4426 154.277C65.0906 153.639 65.3 152.574 65.1968 151.679 65.0815 150.783 64.6383 150.055 63.0146 150.055L59.7154 150.055 59.7154 154.28 59.1448 154.28 59.1448 145.001ZM63.0115 149.56C64.3621 149.56 65.3759 148.923 65.3759 147.43 65.3759 146.027 64.2589 145.493 63.0115 145.493L59.7124 145.493 59.7124 149.56 63.0115 149.56Z" fill="#FFFFFF" fill-rule="nonzero" fill-opacity="1" transform="matrix(1.00697 0 0 1 273.368 104.884)"/><path d="M70.4323 144.998 71.0029 144.998 71.0029 154.277 70.4323 154.277 70.4323 144.998Z" fill="#FFFFFF" fill-rule="nonzero" fill-opacity="1" transform="matrix(1.00697 0 0 1 273.368 104.884)"/><path d="M82.9733 147.766C82.7275 146.206 81.3617 145.272 79.8138 145.272 77.3827 145.272 75.9683 147.26 75.9683 149.639 75.9683 152.019 77.3857 154.007 79.8138 154.007 81.6197 154.007 83.0249 152.395 83.1281 150.668L83.6987 150.668C83.4923 152.878 81.8534 154.501 79.8138 154.501 77.0336 154.501 75.3947 152.359 75.3947 149.642 75.3947 146.926 77.0306 144.783 79.8138 144.783 83.1008 144.783 83.5318 147.642 83.5439 147.773L82.9733 147.773Z" fill="#FFFFFF" fill-rule="nonzero" fill-opacity="1" transform="matrix(1.00697 0 0 1 273.368 104.884)"/><path d="M91.3836 144.998 95.0469 154.277 94.4369 154.277 93.2683 151.299 88.825 151.299 87.6413 154.277 87.0312 154.277 90.7614 144.998 91.3836 144.998ZM93.0862 150.808 91.0983 145.557 91.074 145.557 89.0071 150.808 93.0862 150.808Z" fill="#FFFFFF" fill-rule="nonzero" fill-opacity="1" transform="matrix(1.00697 0 0 1 273.368 104.884)"/><path d="M105.536 144.998 109.409 144.998C111.033 144.998 112.347 145.596 112.347 147.39 112.347 148.638 111.594 149.56 110.359 149.77L110.359 149.794C111.737 149.949 112.074 150.82 112.165 151.782 112.256 152.744 112.101 153.782 112.477 154.277L111.84 154.277C111.488 153.639 111.697 152.574 111.594 151.679 111.479 150.783 111.036 150.055 109.412 150.055L106.113 150.055 106.113 154.28 105.542 154.28 105.542 145.001ZM109.409 149.56C110.76 149.56 111.773 148.923 111.773 147.43 111.773 146.027 110.656 145.493 109.409 145.493L106.11 145.493 106.11 149.56 109.409 149.56Z" fill="#FFFFFF" fill-rule="nonzero" fill-opacity="1" transform="matrix(1.00697 0 0 1 273.368 104.884)"/><path d="M120.211 144.998 123.874 154.277 123.264 154.277 122.096 151.299 117.652 151.299 116.469 154.277 115.859 154.277 119.589 144.998 120.211 144.998ZM121.914 150.808 119.926 145.557 119.901 145.557 117.834 150.808 121.914 150.808Z" fill="#FFFFFF" fill-rule="nonzero" fill-opacity="1" transform="matrix(1.00697 0 0 1 273.368 104.884)"/><path d="M125.996 145.493 125.996 144.998 133.104 144.998 133.104 145.493 129.829 145.493 129.829 154.277 129.258 154.277 129.258 145.493 125.996 145.493Z" fill="#FFFFFF" fill-rule="nonzero" fill-opacity="1" transform="matrix(1.00697 0 0 1 273.368 104.884)"/><path d="M136.846 144.998 137.417 144.998 137.417 154.277 136.846 154.277 136.846 144.998Z" fill="#FFFFFF" fill-rule="nonzero" fill-opacity="1" transform="matrix(1.00697 0 0 1 273.368 104.884)"/><path d="M142.164 144.998 142.88 144.998 148.741 153.512 148.765 153.512 148.765 144.998 149.336 144.998 149.336 154.277 148.659 154.277 142.759 145.7 142.734 145.7 142.734 154.277 142.164 154.277 142.164 144.998Z" fill="#FFFFFF" fill-rule="nonzero" fill-opacity="1" transform="matrix(1.00697 0 0 1 273.368 104.884)"/><path d="M162.141 149.73 162.141 154.28 161.646 154.28 161.646 152.304 161.619 152.304C161.163 153.655 159.749 154.501 158.11 154.501 155.303 154.501 153.743 152.359 153.743 149.694 153.743 147.029 155.327 144.783 158.122 144.783 160.031 144.783 161.658 145.939 161.983 147.876L161.436 147.876C161.009 146.276 159.825 145.278 158.137 145.278 155.63 145.278 154.316 147.384 154.316 149.697 154.316 152.009 155.591 154.013 158.137 154.013 160.347 154.013 161.737 152.504 161.646 150.231L158.228 150.231 158.228 149.736 162.141 149.736Z" fill="#FFFFFF" fill-rule="nonzero" fill-opacity="1" transform="matrix(1.00697 0 0 1 273.368 104.884)"/><path d="M172.876 147.651C172.812 146.067 171.616 145.275 169.901 145.275 168.848 145.275 167.355 145.718 167.355 147.25 167.355 148.783 168.939 148.993 170.511 149.317 172.096 149.642 173.683 150.046 173.683 151.891 173.683 153.736 171.838 154.504 170.42 154.504 168.25 154.504 166.484 153.609 166.508 151.217L167.079 151.217C166.96 153.245 168.587 154.013 170.417 154.013 171.534 154.013 173.106 153.506 173.106 151.894 173.106 150.283 171.522 150.049 169.935 149.724 168.363 149.399 166.775 149.023 166.775 147.254 166.775 145.484 168.426 144.786 169.895 144.786 171.832 144.786 173.352 145.618 173.443 147.657L172.873 147.657Z" fill="#FFFFFF" fill-rule="nonzero" fill-opacity="1" transform="matrix(1.00697 0 0 1 273.368 104.884)"/><path d="M73.4704 87.5229 52.4099 62.5441 52.4798 62.4956C52.4312 62.5472 72.3384 98.3764 71.7495 98.1639 71.8527 98.2429 77.583 60.1646 77.7135 60.7747L47.8421 33.5347 48.1578 33.3253C53.1778 46.7829 58.6531 60.1009 65.0086 72.9879 68.8055 80.3996 72.6297 87.9843 78.2173 94.2244 79.7318 95.7784 82.3845 98.3673 84.6912 97.7633 85.3892 97.3414 85.5926 96.443 85.7717 95.657 86.1875 93.3382 86.0448 90.9192 85.884 88.57 85.4985 83.811 84.7246 79.0793 83.8596 74.3749 82.9824 69.6705 81.99 64.9813 80.8821 60.3285 80.697 60.0766 100.049 21.0939 100.037 20.8571 100.137 20.6386 100.395 20.6143 100.604 20.6325 100.762 20.6325 100.899 20.7236 100.965 20.8571L120.196 60.0462C120.244 60.1464 120.253 60.2526 120.229 60.3558 119.136 65.0086 118.156 69.7009 117.291 74.4022 116.617 78.624 113.379 94.9923 116.414 97.5751 123.067 98.5069 132.946 78.3205 135.723 72.8513 142.048 59.9673 147.484 46.6402 152.465 33.1887L153.442 33.8413 123.64 61.1601 123.847 60.5713 129.862 98.0729 128.539 97.8544 148.383 59.8914 149.672 60.6957 128.682 89.4229C128.026 90.2666 126.773 89.3409 127.377 88.4699 127.377 88.4699 148.44 59.7974 148.443 59.7943 148.692 59.4544 149.169 59.3815 149.509 59.6274 149.818 59.852 149.906 60.2678 149.733 60.5956L129.793 98.5069C129.483 99.1018 128.566 98.9531 128.469 98.2884L122.551 60.7716C122.514 60.547 122.603 60.3285 122.757 60.1828L152.629 32.9429C152.874 32.7152 153.26 32.7304 153.488 32.9793 153.645 33.1523 153.682 33.3921 153.609 33.5954 146.783 51.5267 139.638 69.4702 129.784 85.9841 127.216 90.0663 124.542 94.2821 120.627 97.2261 118.062 98.9773 115.145 99.8211 114.453 95.8087 114.016 93.3685 114.162 90.9404 114.329 88.5033 114.717 83.6926 115.497 78.9457 116.362 74.2231 117.243 69.5005 118.238 64.8083 119.349 60.1343 119.783 61.6032 100.173 20.8845 100.252 21.2031L100.613 21.4277 100.407 21.4277 100.765 21.2031 81.5347 60.3922 81.559 60.1616C82.6577 64.8386 83.638 69.5309 84.506 74.2535 85.3589 78.9761 86.1237 83.7199 86.5001 88.5215 86.6579 90.9374 86.7975 93.3624 86.3605 95.7723 85.456 101.336 79.8715 96.9378 77.8076 94.6099 72.1927 88.3151 68.3624 80.6727 64.5625 73.2094 58.2313 60.286 52.7863 46.9498 47.7936 33.4588 47.7207 33.2767 47.9696 33.1068 48.1092 33.2464L77.9108 60.5652C77.9927 60.6259 71.962 98.0911 71.9408 98.1943 71.6676 98.6344 52.4889 62.5016 52.4251 62.4804 52.4433 62.4713 52.4646 62.4743 52.4767 62.4895L73.4735 87.5229Z" fill="#FFFFFF" fill-rule="nonzero" fill-opacity="1" transform="matrix(1.00697 0 0 1 273.368 104.884)"/><path d="M70.0651 108.441C84.3877 99.6785 103.636 99.6329 119.4 104.252 121.741 104.972 124.017 105.776 126.284 106.878 126.685 107.072 126.852 107.558 126.657 107.958 126.454 108.383 125.923 108.538 125.519 108.301 123.477 107.236 121.215 106.356 118.969 105.6 103.487 100.601 84.5 100.158 70.0651 108.444L70.0651 108.444Z" fill="#FFFFFF" fill-rule="nonzero" fill-opacity="1" transform="matrix(1.00697 0 0 1 273.368 104.884)"/><path d="M70.0651 114.456C84.3877 105.694 103.636 105.648 119.4 110.268 121.741 110.987 124.017 111.791 126.284 112.893 126.685 113.087 126.852 113.573 126.657 113.974 126.454 114.399 125.923 114.553 125.519 114.317 123.477 113.251 121.215 112.371 118.969 111.615 103.487 106.617 84.5 106.174 70.0651 114.459L70.0651 114.459Z" fill="#FFFFFF" fill-rule="nonzero" fill-opacity="1" transform="matrix(1.00697 0 0 1 273.368 104.884)"/></g></g></g></svg>